<?xml version="1.0" standalone="no"?>
<!DOCTYPE svg PUBLIC "-//W3C//DTD SVG 20010904//EN"
 "http://www.w3.org/TR/2001/REC-SVG-20010904/DTD/svg10.dtd">
<svg version="1.0" xmlns="http://www.w3.org/2000/svg"
 width="310.000000pt" height="308.000000pt" viewBox="0 0 310.000000 308.000000"
 preserveAspectRatio="xMidYMid meet">

<g transform="translate(0.000000,308.000000) scale(0.100000,-0.100000)"
fill="#000000" stroke="none">
<path d="M1225 3055 c-134 -29 -147 -33 -260 -80 -330 -136 -595 -369 -763
-670 -96 -171 -147 -316 -182 -520 -20 -111 -22 -149 -17 -299 5 -151 10 -187
40 -306 47 -186 111 -333 218 -500 163 -254 462 -487 768 -599 159 -58 255
-73 488 -78 201 -5 219 -4 340 22 70 15 164 39 208 54 320 111 622 357 805
656 141 229 215 477 227 755 5 128 2 163 -21 296 -14 83 -41 196 -59 250 -92
270 -271 528 -487 702 -198 160 -393 256 -640 313 -118 27 -137 29 -340 28
-186 0 -230 -4 -325 -24z m653 -58 c515 -120 927 -497 1090 -997 44 -136 64
-251 69 -410 5 -159 -1 -224 -36 -385 -95 -441 -420 -835 -848 -1028 -45 -20
-88 -37 -95 -37 -7 0 -25 -7 -40 -14 -15 -8 -30 -12 -32 -8 -2 4 -7 51 -11
106 l-8 98 34 -8 c19 -5 79 -9 134 -9 94 0 104 2 160 33 61 33 120 80 112 89
-3 2 -20 -4 -39 -14 -26 -14 -55 -18 -143 -18 -103 0 -115 2 -188 34 -66 28
-78 37 -75 55 3 24 25 24 93 0 22 -8 77 -19 123 -26 157 -23 306 25 415 133
63 63 76 95 23 54 -63 -48 -131 -66 -296 -80 -85 -8 -171 -17 -190 -20 -33 -6
-33 -5 13 18 27 14 62 38 79 54 27 26 142 233 133 241 -2 2 -37 -25 -77 -61
l-74 -64 -13 141 c-7 77 -19 178 -26 223 -6 45 -8 88 -4 95 4 7 4 17 -1 23 -4
5 -16 57 -25 115 -21 125 -37 150 -99 150 -56 1 -154 23 -196 45 -19 10 -56
35 -81 57 -25 21 -48 38 -52 38 -9 0 -2 -80 14 -157 21 -103 -15 -236 -95
-348 l-21 -30 -6 150 c-5 100 -12 164 -23 193 -9 24 -14 48 -11 53 10 15 33
10 45 -8 9 -15 10 -14 4 7 -3 14 -15 39 -26 57 l-19 32 56 26 c30 15 55 30 55
34 0 11 -129 17 -229 9 -49 -3 -41 -17 28 -47 l49 -21 -31 -57 c-24 -45 -26
-54 -10 -40 45 39 51 17 25 -88 -6 -22 -12 -95 -14 -162 -2 -76 -7 -122 -13
-120 -18 6 -75 111 -95 176 -22 70 -26 164 -9 208 12 31 21 133 11 133 -3 0
-26 -17 -51 -38 -25 -22 -60 -46 -78 -55 -41 -22 -147 -47 -198 -47 -71 -1
-85 -22 -105 -167 -7 -51 -16 -93 -19 -93 -3 0 -6 -26 -7 -57 -1 -61 -35 -425
-41 -432 -1 -2 -11 4 -20 15 -35 38 -113 104 -122 104 -12 0 60 -149 100 -207
20 -28 49 -51 91 -73 43 -22 53 -30 33 -26 -16 3 -95 10 -175 17 -165 12 -255
36 -312 80 -42 34 -49 27 -16 -17 41 -54 83 -86 156 -120 131 -62 242 -68 414
-20 47 13 89 22 92 18 20 -20 0 -40 -71 -72 -74 -33 -84 -35 -188 -35 -85 0
-118 4 -144 18 -19 9 -36 15 -38 13 -9 -9 65 -68 117 -94 49 -23 67 -27 155
-27 55 0 115 4 132 8 l33 8 -7 -98 c-3 -54 -7 -100 -10 -102 -6 -8 -133 39
-218 79 -336 161 -621 476 -748 830 -67 186 -82 280 -82 510 0 231 15 327 81
509 176 485 596 850 1094 950 58 11 114 23 125 25 11 3 106 3 210 2 163 -3
206 -7 303 -29z"/>
<path d="M760 2500 c-8 -4 -45 -22 -81 -39 -80 -37 -131 -90 -169 -175 -28
-61 -46 -126 -36 -126 5 0 119 92 142 115 5 5 30 39 54 75 24 36 64 86 88 113
41 42 41 59 2 37z"/>
<path d="M2352 2448 c30 -35 69 -87 87 -115 33 -51 177 -180 188 -169 9 9 -46
145 -77 192 -36 51 -90 89 -178 127 -35 15 -65 27 -68 27 -2 0 19 -28 48 -62z"/>
<path d="M464 2351 c-46 -28 -90 -86 -114 -152 -18 -52 -21 -76 -18 -194 2
-74 5 -135 8 -135 3 0 16 16 29 35 13 20 55 61 94 93 38 31 87 72 108 90 39
35 99 140 99 175 0 17 -7 13 -37 -19 -21 -22 -72 -66 -113 -96 -42 -31 -89
-74 -104 -95 -16 -21 -26 -30 -22 -20 13 40 35 126 47 186 8 44 23 78 46 107
35 47 27 56 -23 25z"/>
<path d="M2597 2348 c32 -35 48 -76 68 -168 10 -47 24 -102 31 -123 l14 -39
-46 51 c-26 29 -75 72 -110 97 -35 25 -80 64 -99 87 -35 42 -36 42 -29 12 13
-66 59 -138 118 -189 33 -28 96 -86 139 -128 43 -43 79 -78 80 -78 1 0 3 59 4
131 4 180 -27 269 -115 336 -52 39 -88 46 -55 11z"/>
<path d="M1500 2199 c-40 -16 -60 -40 -60 -74 0 -35 15 -55 42 -55 25 0 37 28
27 63 -11 38 -5 47 32 47 25 0 33 -6 45 -35 16 -40 12 -70 -22 -135 -24 -44
-32 -100 -15 -100 5 0 11 13 14 29 4 21 23 42 61 70 64 48 86 93 64 138 -25
52 -121 79 -188 52z"/>
<path d="M257 2117 c-71 -121 -75 -246 -14 -434 21 -62 37 -121 37 -132 0 -36
18 -31 25 7 8 47 43 107 113 197 29 38 63 87 74 109 20 40 59 148 54 153 -3 3
-190 -177 -206 -200 -7 -10 -19 -39 -26 -65 -12 -45 -13 -40 -16 98 -4 229 -4
283 5 308 16 44 -9 21 -46 -41z"/>
<path d="M2797 2145 c5 -22 7 -65 7 -95 -1 -30 -3 -125 -4 -210 -2 -110 -5
-143 -11 -113 -4 23 -15 56 -24 75 -17 32 -205 222 -213 214 -6 -7 38 -124 61
-165 12 -20 49 -72 82 -116 33 -44 67 -98 76 -120 9 -22 21 -51 27 -65 7 -18
11 -21 15 -10 72 226 90 312 83 400 -6 78 -42 171 -85 220 l-21 25 7 -40z"/>
<path d="M1517 1852 c-22 -24 -21 -55 1 -75 24 -22 45 -21 65 1 22 24 21 55
-1 75 -24 22 -45 21 -65 -1z"/>
<path d="M2931 1780 c-1 -55 -27 -142 -70 -232 -30 -65 -60 -160 -62 -203 -1
-11 -5 16 -10 60 -8 87 -24 128 -83 220 -22 33 -45 75 -53 94 -44 105 -15
-117 37 -279 33 -104 40 -139 40 -208 l0 -84 61 79 c89 115 138 191 149 234
30 111 30 266 1 340 -8 21 -10 18 -10 -21z"/>
<path d="M157 1803 c-4 -7 -13 -47 -19 -90 -9 -65 -8 -95 5 -176 19 -111 37
-147 133 -269 34 -43 68 -88 76 -99 11 -18 13 -10 14 63 0 61 7 104 27 163 44
133 67 236 67 294 l0 56 -29 -50 c-15 -27 -44 -77 -65 -110 -45 -73 -56 -111
-57 -200 l-1 -70 -14 63 c-7 35 -25 91 -40 125 -61 146 -78 195 -83 252 -4 34
-9 55 -14 48z"/>
<path d="M1498 1683 c-10 -2 -18 -9 -18 -15 0 -6 7 -7 18 -2 22 10 71 11 100
1 13 -5 22 -4 22 1 0 18 -75 27 -122 15z"/>
<path d="M2621 1347 c-13 -51 -25 -138 -31 -224 -6 -105 -15 -159 -33 -214
-14 -41 -24 -75 -23 -77 3 -3 147 90 225 145 65 46 163 173 185 240 20 64 32
173 18 173 -6 0 -13 -13 -17 -29 -8 -37 -59 -106 -140 -191 -34 -36 -81 -93
-104 -127 -50 -75 -71 -91 -40 -32 33 66 37 168 9 304 -12 61 -23 111 -24 113
-2 1 -13 -35 -25 -81z"/>
<path d="M425 1308 c-24 -141 -23 -209 3 -275 11 -29 17 -53 14 -53 -4 1 -23
26 -42 57 -19 31 -75 99 -123 152 -48 53 -100 121 -115 151 l-27 55 -3 -43
c-5 -70 24 -160 75 -235 59 -85 107 -129 208 -192 44 -27 94 -59 111 -72 17
-13 33 -23 36 -23 3 0 -5 31 -18 69 -17 49 -27 109 -34 203 -10 131 -45 318
-59 318 -4 0 -15 -51 -26 -112z"/>
<path d="M549 1118 c5 -13 14 -63 20 -113 17 -123 44 -200 92 -263 42 -57 39
-57 -27 -7 -23 18 -92 57 -155 88 -116 56 -197 117 -230 172 -31 50 -24 0 10
-70 37 -78 93 -140 183 -202 77 -53 151 -80 293 -108 110 -21 114 -20 83 13
-33 35 -71 111 -110 220 -34 98 -65 162 -114 240 -35 53 -61 71 -45 30z"/>
<path d="M2518 1108 c-44 -59 -85 -141 -122 -243 -53 -144 -67 -175 -104 -223
l-33 -44 43 7 c79 12 251 56 282 72 60 31 157 105 191 147 36 45 95 152 95
174 0 7 -28 -15 -62 -50 -52 -52 -85 -74 -191 -126 -70 -35 -140 -73 -155 -85
-61 -50 -65 -50 -29 -4 48 65 73 135 92 259 9 57 20 113 25 126 14 32 -4 27
-32 -10z"/>
</g>
</svg>
